<svg xmlns="http://www.w3.org/2000/svg" width="70" height="70" viewBox="0 0 70 70">
  <g id="Group_48792" data-name="Group 48792" transform="translate(-451 -1465)">
    <rect id="Rectangle_3244" data-name="Rectangle 3244" width="70" height="70" transform="translate(451 1465)" fill="none"/>
    <g id="noun-reading-6992698" transform="translate(453 1465.289)">
      <g id="Group_48785" data-name="Group 48785" transform="translate(7 10.711)">
        <path id="Path_24188" data-name="Path 24188" d="M57.889,14.563H54.708V11.922A1.211,1.211,0,0,0,53.5,10.711H41.38a9.394,9.394,0,0,0-8.33,5.071,9.394,9.394,0,0,0-8.33-5.071H12.6a1.211,1.211,0,0,0-1.212,1.212v2.641H8.212A1.211,1.211,0,0,0,7,15.775V53.589A1.211,1.211,0,0,0,8.212,54.8H27.832a5.631,5.631,0,0,0,10.436,0H57.889A1.211,1.211,0,0,0,59.1,53.589V15.775a1.211,1.211,0,0,0-1.212-1.212ZM13.815,44.182h10.9a6.992,6.992,0,0,1,6.34,4.089H13.815ZM35.04,48.271a6.992,6.992,0,0,1,6.34-4.089h10.9v4.089Zm6.34-35.137h10.9V41.759H41.38a9.413,9.413,0,0,0-6.967,3.11V20.1a6.976,6.976,0,0,1,6.967-6.967Zm-27.565,0h10.9A6.976,6.976,0,0,1,31.687,20.1V44.869a9.413,9.413,0,0,0-6.967-3.11h-10.9ZM56.677,52.377h-19.3a1.211,1.211,0,0,0-1.186.966h0a3.206,3.206,0,0,1-6.276,0h0a1.211,1.211,0,0,0-1.186-.966H9.424V16.986h1.969v32.5A1.211,1.211,0,0,0,12.6,50.695H32.9a1.1,1.1,0,0,0,.151-.017,1.1,1.1,0,0,0,.151.017H53.5a1.211,1.211,0,0,0,1.212-1.212v-32.5h1.969Z" transform="translate(-7 -10.711)" fill="#1e2c53"/>
        <path id="Path_24189" data-name="Path 24189" d="M23.337,23.923H34.09a1.212,1.212,0,0,0,0-2.423H23.337a1.212,1.212,0,0,0,0,2.423Z" transform="translate(-12.962 -14.964)" fill="#1e2c53"/>
        <path id="Path_24190" data-name="Path 24190" d="M23.337,31.923H34.09a1.212,1.212,0,0,0,0-2.423H23.337a1.212,1.212,0,0,0,0,2.423Z" transform="translate(-12.962 -18.117)" fill="#1e2c53"/>
        <path id="Path_24191" data-name="Path 24191" d="M23.337,39.923H34.09a1.212,1.212,0,0,0,0-2.423H23.337a1.212,1.212,0,1,0,0,2.423Z" transform="translate(-12.962 -21.271)" fill="#1e2c53"/>
        <path id="Path_24192" data-name="Path 24192" d="M23.337,47.923H34.09a1.212,1.212,0,0,0,0-2.423H23.337a1.212,1.212,0,1,0,0,2.423Z" transform="translate(-12.962 -24.424)" fill="#1e2c53"/>
        <path id="Path_24193" data-name="Path 24193" d="M23.337,55.923H34.09a1.212,1.212,0,0,0,0-2.423H23.337a1.212,1.212,0,1,0,0,2.423Z" transform="translate(-12.962 -27.577)" fill="#1e2c53"/>
        <path id="Path_24194" data-name="Path 24194" d="M57.337,23.923H68.09a1.212,1.212,0,0,0,0-2.423H57.337a1.212,1.212,0,0,0,0,2.423Z" transform="translate(-26.364 -14.964)" fill="#1e2c53"/>
        <path id="Path_24195" data-name="Path 24195" d="M57.337,31.923H68.09a1.212,1.212,0,0,0,0-2.423H57.337a1.212,1.212,0,0,0,0,2.423Z" transform="translate(-26.364 -18.117)" fill="#1e2c53"/>
        <path id="Path_24196" data-name="Path 24196" d="M57.337,39.923H68.09a1.212,1.212,0,0,0,0-2.423H57.337a1.212,1.212,0,0,0,0,2.423Z" transform="translate(-26.364 -21.271)" fill="#1e2c53"/>
        <path id="Path_24197" data-name="Path 24197" d="M57.337,47.923H68.09a1.212,1.212,0,0,0,0-2.423H57.337a1.212,1.212,0,0,0,0,2.423Z" transform="translate(-26.364 -24.424)" fill="#1e2c53"/>
        <path id="Path_24198" data-name="Path 24198" d="M57.337,55.923H68.09a1.212,1.212,0,1,0,0-2.423H57.337a1.212,1.212,0,0,0,0,2.423Z" transform="translate(-26.364 -27.577)" fill="#1e2c53"/>
      </g>
    </g>
  </g>
</svg>
