<svg xmlns="http://www.w3.org/2000/svg" xmlns:xlink="http://www.w3.org/1999/xlink" width="70" height="70" viewBox="0 0 70 70">
  <defs>
    <clipPath id="clip-path">
      <rect id="Rectangle_3237" data-name="Rectangle 3237" width="55" height="55" transform="translate(0.46)" fill="#1e2c53"/>
    </clipPath>
  </defs>
  <g id="Group_48787" data-name="Group 48787" transform="translate(-1404 -1483)">
    <rect id="Rectangle_3249" data-name="Rectangle 3249" width="70" height="70" transform="translate(1404 1483)" fill="none"/>
    <g id="noun-grammar-2474226" transform="translate(1411.54 1491)">
      <g id="Group_48783" data-name="Group 48783">
        <g id="Group_48782" data-name="Group 48782">
          <g id="Group_48781" data-name="Group 48781">
            <g id="Group_48780" data-name="Group 48780" clip-path="url(#clip-path)">
              <g id="Group_48779" data-name="Group 48779" transform="translate(5.755 4.709)">
                <g id="Group_48776" data-name="Group 48776" transform="translate(8.371 9.418)">
                  <g id="Group_48775" data-name="Group 48775" transform="translate(0 0)">
                    <rect id="Rectangle_3235" data-name="Rectangle 3235" width="11" height="9" transform="translate(0.333 -0.127)" fill="none"/>
                    <path id="Path_24170" data-name="Path 24170" d="M658.494,652.507a2.7,2.7,0,0,1,.525-1.488,4.607,4.607,0,0,1,1.269-1.006,1.142,1.142,0,0,0,.328-1.728.975.975,0,0,0-.766-.284,2.756,2.756,0,0,0-1.641.766,6.177,6.177,0,0,0-1.575,2.057,6.477,6.477,0,0,0-.634,2.8,3.873,3.873,0,0,0,.722,2.516,2.318,2.318,0,0,0,1.838.875,2.458,2.458,0,0,0,1.706-.634,2.023,2.023,0,0,0,.678-1.575,2.163,2.163,0,0,0-.678-1.641,2.209,2.209,0,0,0-1.553-.656Zm6.694,0a2.846,2.846,0,0,1,.5-1.466,4.019,4.019,0,0,1,1.247-1.028,1.142,1.142,0,0,0,.328-1.728A.946.946,0,0,0,666.5,648a2.454,2.454,0,0,0-1.225.438,5.446,5.446,0,0,0-1.269,1.2,7.428,7.428,0,0,0-.984,1.794,6.563,6.563,0,0,0-.372,2.188,3.956,3.956,0,0,0,.722,2.516,2.219,2.219,0,0,0,1.838.9,2.361,2.361,0,0,0,1.706-.635,2.1,2.1,0,0,0,.678-1.6,2.163,2.163,0,0,0-.678-1.641,2.2,2.2,0,0,0-1.531-.656Z" transform="translate(-655.775 -647.95)" fill="#1e2c53" fill-rule="evenodd"/>
                  </g>
                </g>
                <g id="Group_48778" data-name="Group 48778" transform="translate(0 0)">
                  <g id="Group_48777" data-name="Group 48777">
                    <rect id="Rectangle_3236" data-name="Rectangle 3236" width="47" height="47" transform="translate(-0.295 0.291)" fill="none"/>
                    <path id="Path_24171" data-name="Path 24171" d="M312.842,260.736l.2.263a1.6,1.6,0,1,1-2.472,2.035,2.311,2.311,0,0,1-.219-.263Zm-3.172,1.16c-1.072-1.4-2.166-2.8-3.238-4.2H286.939l-10.457,9.21a.786.786,0,0,1-.219.153,1.488,1.488,0,0,1-1.4,0,1.388,1.388,0,0,1-.5-.5,1.284,1.284,0,0,1-.175-.7v-8.51a8.055,8.055,0,0,1-1.247-.569,7.9,7.9,0,0,1-2.013-1.619,8.621,8.621,0,0,1-1.4-2.144,6.432,6.432,0,0,1-.525-2.538V227.22a5.973,5.973,0,0,1,.153-1.4,6.662,6.662,0,0,1,.459-1.313,8.562,8.562,0,0,1,1.6-2.275,8.121,8.121,0,0,1,2.253-1.6,6.66,6.66,0,0,1,1.313-.459,5.986,5.986,0,0,1,1.4-.175h27.281a1.3,1.3,0,0,1,.7.2c.022.022.044.022.066.044.022,0,.022.022.044.022a1.472,1.472,0,0,1,.306.241l10.107,10.392a2.72,2.72,0,0,1,.2.263l.066.131a1.4,1.4,0,0,1,.175.656v24.349a1.3,1.3,0,0,1-.2.7,1.388,1.388,0,0,1-.5.5,1.3,1.3,0,0,1-.7.2h-3.282l1.706,2.166Zm-33.407-6.848a1.387,1.387,0,0,1,.5.5,1.3,1.3,0,0,1,.2.7v6.519l8.532-7.526a.786.786,0,0,1,.219-.153,1.284,1.284,0,0,1,.7-.175h17.874q-4.4-5.776-8.838-11.486c-.569-1.619-1.116-3.238-1.663-4.813,1.313.941,2.625,1.881,3.96,2.822,3.5,4.485,7.023,8.992,10.523,13.476h4.069V233.258h-8.773a1.3,1.3,0,0,1-.7-.2,1.388,1.388,0,0,1-.5-.5,1.284,1.284,0,0,1-.175-.7V222.8H276.176a3.048,3.048,0,0,0-.766.088,5.542,5.542,0,0,0-.788.263,5.2,5.2,0,0,0-1.444,1.05,5.3,5.3,0,0,0-1.05,1.466,5.548,5.548,0,0,0-.263.788,3.049,3.049,0,0,0-.087.766v23.256a3.8,3.8,0,0,0,.306,1.444,5.521,5.521,0,0,0,.9,1.378,5.75,5.75,0,0,0,1.335,1.072,3.794,3.794,0,0,0,1.444.5A1.535,1.535,0,0,1,276.263,255.047Z" transform="translate(-268.87 -219.896)" fill="#1e2c53" fill-rule="evenodd"/>
                  </g>
                </g>
              </g>
            </g>
          </g>
        </g>
      </g>
    </g>
  </g>
</svg>
