<svg xmlns="http://www.w3.org/2000/svg" width="70" height="70" viewBox="0 0 70 70">
  <g id="Group_48790" data-name="Group 48790" transform="translate(-830 -1473)">
    <rect id="Rectangle_3246" data-name="Rectangle 3246" width="70" height="70" transform="translate(830 1473)" fill="none"/>
    <g id="noun-listening-6003402" transform="translate(833 1475.544)">
      <path id="Path_24172" data-name="Path 24172" d="M53.493,48.425V37.177a4.375,4.375,0,1,0-8.749,0V48.425a4.374,4.374,0,0,0,8.749,0Z" fill="#1e2c53"/>
      <path id="Path_24173" data-name="Path 24173" d="M4,32.308V45.046a3.258,3.258,0,0,0,3.25,3.26H8.5v-11H6v-5a26,26,0,0,1,51.993,0v5h-2.5v11h1.25a3.271,3.271,0,0,0,3.25-3.26V32.308C58.46-4.824,5.536-4.832,4,32.308Z" fill="#1e2c53"/>
      <path id="Path_24174" data-name="Path 24174" d="M10.5,37.177V48.425a4.374,4.374,0,1,0,8.749,0V37.177a4.375,4.375,0,1,0-8.749,0Z" fill="#1e2c53"/>
      <path id="Path_24175" data-name="Path 24175" d="M51.993,55.544H36.815a3,3,0,0,0-2.82-2H30a3,3,0,1,0,0,6h4a2.987,2.987,0,0,0,2.82-2H51.993a8.026,8.026,0,0,0,8-8.379,5.178,5.178,0,0,1-2.03.99,6.007,6.007,0,0,1-5.969,5.389Z" fill="#1e2c53"/>
      <path id="Path_24176" data-name="Path 24176" d="M24,35.552a1,1,0,0,0-1,1v12a1,1,0,0,0,2,0v-12a1,1,0,0,0-1-1Z" fill="#1e2c53"/>
      <path id="Path_24177" data-name="Path 24177" d="M33,51.55v-18a1,1,0,1,0-2,0v18a1,1,0,0,0,2,0Z" fill="#1e2c53"/>
      <path id="Path_24178" data-name="Path 24178" d="M40.995,48.55v-12a1,1,0,1,0-2,0v12a1,1,0,1,0,2,0Z" fill="#1e2c53"/>
    </g>
  </g>
</svg>
