<svg xmlns="http://www.w3.org/2000/svg" width="70" height="70" viewBox="0 0 70 70">
  <g id="Group_48788" data-name="Group 48788" transform="translate(-1224 -1480)">
    <rect id="Rectangle_3248" data-name="Rectangle 3248" width="70" height="70" transform="translate(1224 1480)" fill="none"/>
    <g id="noun-dictionary-6590286" transform="translate(1231 1487)">
      <g id="Group_48774" data-name="Group 48774" transform="translate(7.389 6.959)">
        <g id="Group_48773" data-name="Group 48773">
          <path id="Path_24159" data-name="Path 24159" d="M30.325,39.2H1.771a.552.552,0,0,1-.552-.552V1.392A.552.552,0,0,1,1.771.84H30.325a.552.552,0,0,1,.552.552v12.19a.552.552,0,0,1-.552.552.545.545,0,0,1-.552-.552V1.933H2.311V38.112H29.773V28.2a.552.552,0,0,1,.552-.552.545.545,0,0,1,.552.552V38.652a.552.552,0,0,1-.552.552Z" transform="translate(1.484 -0.84)" fill="#1e2c53" fill-rule="evenodd"/>
          <path id="Path_24160" data-name="Path 24160" d="M1.456,41.2A.557.557,0,0,1,.9,40.664L.892,3.933a.539.539,0,0,1,.173-.4L3.779.989a.545.545,0,0,1,.747.794L1.985,4.163,2,40.664a.54.54,0,0,1-.541.54h0Z" transform="translate(-0.892 -0.839)" fill="#1e2c53" fill-rule="evenodd"/>
          <path id="Path_24161" data-name="Path 24161" d="M32.691,10.678H3.562a2.668,2.668,0,1,1,0-5.336H32.691a.552.552,0,0,1,.552.552v4.243a.558.558,0,0,1-.552.541ZM3.562,6.434a1.576,1.576,0,0,0,0,3.151H32.151V6.434H3.562Z" transform="translate(-0.882 31.929)" fill="#1e2c53" fill-rule="evenodd"/>
          <path id="Path_24162" data-name="Path 24162" d="M10.137,16.143a6.854,6.854,0,1,1,6.854-6.854,6.864,6.864,0,0,1-6.854,6.854Zm0-12.627A5.761,5.761,0,1,0,15.9,9.277,5.772,5.772,0,0,0,10.137,3.516Z" transform="translate(16.509 10.767)" fill="#1e2c53" fill-rule="evenodd"/>
          <path id="Path_24163" data-name="Path 24163" d="M12.462,21.112a9.5,9.5,0,1,1,9.5-9.5A9.509,9.509,0,0,1,12.462,21.112Zm0-17.894a8.406,8.406,0,1,0,8.406,8.406,8.417,8.417,0,0,0-8.406-8.406Z" transform="translate(14.183 8.431)" fill="#1e2c53" fill-rule="evenodd"/>
          <path id="Path_24164" data-name="Path 24164" d="M11.611,12.837a3.1,3.1,0,0,1-1.805-.587L4.953,8.7A.543.543,0,0,1,5.6,7.823l4.853,3.553a2,2,0,0,0,1.483.356,1.992,1.992,0,0,0,.874-3.577L7.816,4.511a.543.543,0,0,1,.644-.874l4.991,3.645a3.084,3.084,0,0,1-1.357,5.531c-.161,0-.333.023-.483.023Z" transform="translate(27.04 18.73)" fill="#1e2c53" fill-rule="evenodd"/>
          <path id="Path_24165" data-name="Path 24165" d="M17.1,2.831H2.447A.552.552,0,0,1,1.9,2.279a.545.545,0,0,1,.552-.552H17.1a.552.552,0,0,1,.552.552A.545.545,0,0,1,17.1,2.831Z" transform="translate(6.408 5.61)" fill="#1e2c53" fill-rule="evenodd"/>
          <path id="Path_24166" data-name="Path 24166" d="M10.3,3.511H2.449A.552.552,0,0,1,1.9,2.959a.545.545,0,0,1,.552-.552H10.3a.552.552,0,0,1,0,1.1Z" transform="translate(6.418 10.565)" fill="#1e2c53" fill-rule="evenodd"/>
          <path id="Path_24167" data-name="Path 24167" d="M8,4.194H2.449A.552.552,0,0,1,1.9,3.642a.545.545,0,0,1,.552-.552H8a.552.552,0,1,1,0,1.1Z" transform="translate(6.418 15.539)" fill="#1e2c53" fill-rule="evenodd"/>
          <path id="Path_24168" data-name="Path 24168" d="M8,4.876H2.449A.552.552,0,0,1,1.9,4.324a.545.545,0,0,1,.552-.552H8a.552.552,0,1,1,0,1.1Z" transform="translate(6.418 20.504)" fill="#1e2c53" fill-rule="evenodd"/>
          <path id="Path_24169" data-name="Path 24169" d="M10.3,5.558H2.449A.552.552,0,0,1,1.9,5.006a.545.545,0,0,1,.552-.552H10.3a.552.552,0,0,1,0,1.1Z" transform="translate(6.418 25.469)" fill="#1e2c53" fill-rule="evenodd"/>
        </g>
      </g>
      <rect id="Rectangle_3234" data-name="Rectangle 3234" width="56.524" height="56.524" fill="none"/>
    </g>
  </g>
</svg>
