<svg xmlns="http://www.w3.org/2000/svg" width="70" height="70" viewBox="0 0 70 70">
  <g id="Group_48791" data-name="Group 48791" transform="translate(-629 -1468)">
    <rect id="Rectangle_3245" data-name="Rectangle 3245" width="70" height="70" transform="translate(629 1468)" fill="none"/>
    <g id="noun-writing-7035416" transform="translate(632.875 1471.875)">
      <g id="Group_48786" data-name="Group 48786" transform="translate(3.125 3.125)">
        <path id="Path_24199" data-name="Path 24199" d="M23.82,55.787H9.13A3.234,3.234,0,0,1,5.9,52.554V9.13A3.234,3.234,0,0,1,9.13,5.9H40.339A3.234,3.234,0,0,1,43.573,9.13V27.285a1.386,1.386,0,0,0,2.772,0V9.13a6.014,6.014,0,0,0-6.005-6.005H9.131A6.014,6.014,0,0,0,3.125,9.13V52.554a6.014,6.014,0,0,0,6.005,6.005h14.69a1.386,1.386,0,0,0,0-2.772Z" transform="translate(-3.125 -3.125)" fill="#1e2c53"/>
        <path id="Path_24200" data-name="Path 24200" d="M42.3,17.312H19.2a1.386,1.386,0,0,0,0,2.772H42.3a1.386,1.386,0,0,0,0-2.772Z" transform="translate(-9.128 -8.923)" fill="#1e2c53"/>
        <path id="Path_24201" data-name="Path 24201" d="M43.681,32.917A1.387,1.387,0,0,0,42.3,31.531H19.2a1.386,1.386,0,1,0,0,2.772H42.3A1.387,1.387,0,0,0,43.681,32.917Z" transform="translate(-9.128 -14.735)" fill="#1e2c53"/>
        <path id="Path_24202" data-name="Path 24202" d="M19.167,45.75a1.386,1.386,0,1,0,0,2.772h15.42a1.386,1.386,0,1,0,0-2.772Z" transform="translate(-9.115 -20.546)" fill="#1e2c53"/>
        <path id="Path_24203" data-name="Path 24203" d="M73.831,47.536l-2.319-2.3a4.7,4.7,0,0,0-6.643,0L46.761,63.344v.046a1.446,1.446,0,0,0-.139.176l-.055.092a1.442,1.442,0,0,0-.092.213.251.251,0,0,0,0,.083L43.906,73.47a1.386,1.386,0,0,0,1.34,1.737,1.43,1.43,0,0,0,.4,0l9.507-2.522h.074l.157-.055.1-.055.129-.083.1-.083.065-.055L73.887,54.244a4.691,4.691,0,0,0-.055-6.707ZM47.2,71.872l1.524-5.728L51.8,67.271l1.127,3.077Zm8.112-3.086-.822-2.236,9.775-9.821a1.386,1.386,0,0,0-1.986-1.922l-9.756,9.775-2.254-.822,13.2-13.184L68.491,55.6ZM71.873,52.22,70.45,53.643l-5.026-5.026,1.469-1.423a1.97,1.97,0,0,1,2.725,0l2.3,2.3a1.931,1.931,0,0,1-.046,2.725Z" transform="translate(-19.775 -19.774)" fill="#1e2c53"/>
      </g>
    </g>
  </g>
</svg>
